<?xml version="1.0" encoding="utf-8"?>
<!-- Generator: Adobe Illustrator 25.0.0, SVG Export Plug-In . SVG Version: 6.00 Build 0)  -->
<svg version="1.1" id="Lag_1" xmlns="http://www.w3.org/2000/svg" xmlns:xlink="http://www.w3.org/1999/xlink" x="0px" y="0px"
	 viewBox="0 0 70 76" style="enable-background:new 0 0 70 76;" xml:space="preserve">
<path d="M25,18.8c0,5.8-3.7,10.3-8.5,10.3c-4.7,0-8.5-4.7-8.5-10.5c0-5.8,3.9-10.3,8.5-10.3C21.3,8.4,25,13,25,18.8z"/>
<ellipse cx="50.2" cy="14.2" rx="8.5" ry="10.5"/>
<path d="M67.2,46.5C64.8,55.7,55.6,66.1,41.8,69c-13.7,3.7-26.6-1.8-32.7-8.9c-6.1-6.8-6.3-15-3.1-20.9c0.3-0.6,1.1-0.8,1.8-0.5
	c16.1,9,35.9,5.6,48-7.7c2.9-3.2,8.2-2.7,10.3,1.1C68,36.2,68.7,41,67.2,46.5z"/>
</svg>
